<?xml version="1.0" encoding="UTF-8"?>
<svg version="1.1" xmlns="http://www.w3.org/2000/svg" width="512" height="512">
<path d="M0 0 C0.75639771 -0.00511093 1.51279541 -0.01022186 2.29211426 -0.01548767 C4.79378152 -0.02939427 7.29517367 -0.02842632 9.796875 -0.02612305 C11.53418073 -0.03000901 13.27148552 -0.03434347 15.00878906 -0.03910828 C18.65042196 -0.04657249 22.2919579 -0.04627748 25.93359375 -0.04101562 C30.60458497 -0.03521656 35.27518023 -0.05216141 39.94610596 -0.0753603 C43.53371508 -0.0900771 47.12122835 -0.09097223 50.7088623 -0.08785057 C52.4312824 -0.08836468 54.15370774 -0.09361924 55.87609863 -0.10366249 C58.28224597 -0.11597193 60.68761552 -0.10926918 63.09375 -0.09765625 C63.80760864 -0.10529999 64.52146729 -0.11294373 65.25695801 -0.12081909 C70.09049996 -0.06914349 70.09049996 -0.06914349 72.22900486 1.54185963 C73.84148445 3.66202478 73.9256794 4.73130683 73.93455505 7.37365723 C73.94445969 8.20644699 73.95436432 9.03923676 73.96456909 9.89726257 C73.96006744 10.80748672 73.9555658 11.71771088 73.95092773 12.65551758 C73.95779099 13.61674026 73.96465424 14.57796295 73.97172546 15.5683136 C73.99005624 18.75182789 73.9861473 21.93485237 73.98046875 25.1184082 C73.98502723 27.32653973 73.9903318 29.53466983 73.99635315 31.74279785 C74.00529638 36.37310547 74.00284693 41.00324072 73.99291992 45.63354492 C73.9814234 51.57582355 74.00164645 57.51750856 74.03083706 63.45970917 C74.04915595 68.02011919 74.0489153 72.5803858 74.04319954 77.14082336 C74.04304582 79.33214654 74.04913128 81.52347913 74.06149101 83.71476746 C74.07631926 86.77482699 74.06578423 89.83377481 74.04858398 92.89379883 C74.05825195 93.80402298 74.06791992 94.71424713 74.07788086 95.65205383 C74.06312965 96.90123848 74.06312965 96.90123848 74.04808044 98.17565918 C74.04776652 99.26075649 74.04776652 99.26075649 74.04744625 100.36777496 C73.546875 102.2746582 73.546875 102.2746582 69.546875 105.2746582 C59.646875 105.2746582 49.746875 105.2746582 39.546875 105.2746582 C39.546875 170.6146582 39.546875 235.9546582 39.546875 303.2746582 C46.146875 303.2746582 52.746875 303.2746582 59.546875 303.2746582 C59.52069092 300.67059082 59.49450684 298.06652344 59.4675293 295.38354492 C59.38463523 286.7742527 59.32943329 278.16494273 59.28781414 269.55535698 C59.26173412 264.33592473 59.22636484 259.11690177 59.16967773 253.89770508 C59.11530161 248.85968129 59.08544246 243.82205088 59.07248878 238.78375626 C59.063259 236.86280246 59.04523506 234.9418699 59.01822472 233.02108383 C58.98185961 230.32763102 58.97693271 227.63579797 58.97924805 224.94213867 C58.96127167 224.15019608 58.94329529 223.35825348 58.92477417 222.54231262 C58.96214513 218.51733679 59.35724875 216.00239224 61.89485168 212.79544067 C65.90490659 208.9838316 68.84587014 209.15369312 74.18359375 209.17700195 C75.48232422 209.18022461 76.78105469 209.18344727 78.11914062 209.18676758 C79.49088608 209.19512289 80.86263087 209.20358783 82.234375 209.2121582 C83.61783695 209.21717485 85.00130063 209.22173747 86.38476562 209.22583008 C89.77217895 209.23763291 93.15950533 209.25409802 96.546875 209.2746582 C96.53577194 208.45890823 96.52466888 207.64315826 96.51322937 206.8026886 C96.41296388 199.10775588 96.33687855 191.41314072 96.28781414 183.7177248 C96.26174118 179.76156518 96.22638691 175.80594615 96.16967773 171.85009766 C96.11527321 168.03103018 96.08543714 164.21248201 96.07248878 160.39305687 C96.06326381 158.93736789 96.04524882 157.48170674 96.01822472 156.0262394 C95.98181757 153.98383241 95.97693384 151.94355918 95.97924805 149.90087891 C95.96814499 148.73949905 95.95704193 147.5781192 95.94560242 146.38154602 C96.72871437 142.33506019 98.42308631 140.86626508 101.546875 138.2746582 C103.85773693 137.11922724 105.17144716 137.14642926 107.74302292 137.14043713 C108.6280873 137.13597928 109.51315168 137.13152144 110.42503619 137.12692851 C111.89260989 137.12720505 111.89260989 137.12720505 113.38983154 137.12748718 C114.4245293 137.12381049 115.45922705 137.12013381 116.52527928 137.1163457 C120.01523018 137.1052747 123.50515133 137.10145925 126.99511719 137.09765625 C129.48810929 137.09139421 131.98110045 137.08474765 134.47409058 137.07774353 C141.97205189 137.05849071 149.4700053 137.04791158 156.96798408 137.03901574 C160.49773298 137.03463414 164.02748038 137.02926698 167.55722809 137.02402687 C179.28905806 137.00701336 191.02088709 136.99251895 202.75272751 136.98527813 C205.79804231 136.98336819 208.8433571 136.98144787 211.88867188 136.97949219 C212.64558316 136.97900845 213.40249445 136.97852471 214.18234244 136.97802631 C226.44520929 136.96972511 238.70797862 136.94438728 250.97080287 136.91191151 C263.55697525 136.87885083 276.14309805 136.86083025 288.72931409 136.85763389 C295.79755781 136.85546782 302.86565934 136.84670519 309.93386078 136.82117271 C316.58224346 136.79721246 323.23041601 136.79363383 329.87884903 136.8039341 C332.32097601 136.80443107 334.76311533 136.79806332 337.20520401 136.78437805 C340.5357738 136.76675605 343.86541439 136.77371827 347.19598389 136.78691101 C348.16544347 136.77594176 349.13490304 136.76497252 350.13374019 136.75367087 C355.90485857 136.80897138 359.14097443 137.44980376 363.546875 141.2746582 C365.71312248 145.02047227 365.79105297 148.35225424 365.77392578 152.62548828 C365.77377472 153.886418 365.77362366 155.14734772 365.77346802 156.44648743 C365.76325636 157.81238973 365.7528244 159.1782904 365.7421875 160.54418945 C365.73845441 161.94951679 365.73560883 163.35484674 365.73361206 164.76017761 C365.72599889 168.44765488 365.70637053 172.13497302 365.6842041 175.8223877 C365.66369559 179.5896591 365.65459967 183.35695637 365.64453125 187.12426758 C365.62312225 194.50780343 365.58901454 201.89120847 365.546875 209.2746582 C366.77204834 209.25109253 366.77204834 209.25109253 368.02197266 209.22705078 C371.73853577 209.1645188 375.45498796 209.12560876 379.171875 209.0871582 C380.45707031 209.06202148 381.74226563 209.03688477 383.06640625 209.01098633 C384.93232422 208.99648438 384.93232422 208.99648438 386.8359375 208.98168945 C388.54837646 208.95812378 388.54837646 208.95812378 390.29541016 208.93408203 C394.01734233 209.32393752 396.37271069 210.31636896 399.546875 212.2746582 C401.94806559 215.87644409 401.98458822 218.78332189 402.171875 222.9621582 C402.21054687 223.66405273 402.24921875 224.36594727 402.2890625 225.08911133 C402.3831084 226.81720475 402.4660718 228.54589496 402.546875 230.2746582 C402.876875 229.9446582 403.206875 229.6146582 403.546875 229.2746582 C406.21746351 229.13350659 408.87119738 229.23218713 411.546875 229.2746582 C411.51207031 227.84573242 411.51207031 227.84573242 411.4765625 226.38793945 C411.45851563 225.13368164 411.44046875 223.87942383 411.421875 222.5871582 C411.39867187 221.34579102 411.37546875 220.10442383 411.3515625 218.82543945 C411.546875 215.2746582 411.546875 215.2746582 412.6796875 212.56762695 C413.83727023 210.32127482 413.83727023 210.32127482 412.69140625 208.36450195 C412.12486328 207.3300293 412.12486328 207.3300293 411.546875 206.2746582 C411.24609375 203.21606445 411.24609375 203.21606445 411.234375 199.8371582 C411.21761719 198.72469727 411.20085937 197.61223633 411.18359375 196.46606445 C411.6011406 192.7979378 412.20494893 191.12471926 414.546875 188.2746582 C417.70350647 187.65992737 417.70350647 187.65992737 421.64868164 187.67529297 C422.36767136 187.67135025 423.08666107 187.66740753 423.82743835 187.66334534 C426.20467742 187.6566306 428.57999773 187.68580125 430.95703125 187.71606445 C432.60704679 187.72031389 434.2570683 187.72264305 435.90708923 187.72312927 C439.36484877 187.72929723 442.82196114 187.75201019 446.27954102 187.78759766 C450.71743371 187.83290617 455.15474045 187.84762511 459.59284306 187.85133457 C462.99944365 187.85575755 466.40592057 187.87105082 469.81246758 187.89021111 C471.44917214 187.89910607 473.08588995 187.90582986 474.72261238 187.91037178 C477.00678963 187.91938883 479.29043026 187.94175559 481.57446289 187.96826172 C482.8755751 187.97890152 484.17668732 187.98954132 485.51722717 188.00050354 C488.546875 188.2746582 488.546875 188.2746582 490.546875 190.2746582 C490.80566406 192.10644531 490.80566406 192.10644531 490.8125 194.30200195 C490.81507813 195.09413086 490.81765625 195.88625977 490.8203125 196.70239258 C490.81257813 197.53061523 490.80484375 198.35883789 490.796875 199.2121582 C490.80460937 200.03651367 490.81234375 200.86086914 490.8203125 201.71020508 C490.81644531 202.90033203 490.81644531 202.90033203 490.8125 204.11450195 C490.81024414 204.84016357 490.80798828 205.5658252 490.80566406 206.31347656 C490.546875 208.2746582 490.546875 208.2746582 488.546875 211.2746582 C489.206875 211.9346582 489.866875 212.5946582 490.546875 213.2746582 C490.69195195 216.01951413 490.73339923 218.65946363 490.671875 221.3996582 C490.66285156 222.15375977 490.65382813 222.90786133 490.64453125 223.68481445 C490.6209437 225.54823075 490.58507219 227.41148413 490.546875 229.2746582 C492.53255208 229.20955404 494.51822917 229.14444987 496.50390625 229.0793457 C498.546875 229.2746582 498.546875 229.2746582 501.546875 231.2746582 C501.84883994 234.31341781 501.95609651 237.14902077 501.93505859 240.19067383 C501.94031555 241.1143425 501.94557251 242.03801117 501.95098877 242.9896698 C501.96423055 246.05358618 501.95543588 249.11698622 501.9453125 252.1809082 C501.94733203 254.30318299 501.95024246 256.42545709 501.95401001 258.54772949 C501.95843903 262.99990432 501.95198367 267.45189883 501.93798828 271.90405273 C501.92089617 277.62105918 501.93073425 283.33764316 501.94870567 289.05463409 C501.95952787 293.43828536 501.95610436 297.82183587 501.9483223 302.20549011 C501.94631596 304.31389923 501.94879468 306.42231738 501.95576096 308.53071594 C501.9633497 311.47360589 501.95180743 314.41580436 501.93505859 317.35864258 C501.94113129 318.2366301 501.94720398 319.11461761 501.95346069 320.01921082 C501.92782593 322.44104004 501.92782593 322.44104004 501.546875 326.2746582 C497.94947319 328.67292608 495.21221139 328.67645532 491.046875 328.7121582 C490.37011719 328.7450293 489.69335938 328.77790039 488.99609375 328.81176758 C487.015625 328.83325195 487.015625 328.83325195 483.546875 328.2746582 C480.546875 323.2746582 480.546875 323.2746582 480.546875 301.2746582 C461.076875 301.2746582 441.606875 301.2746582 421.546875 301.2746582 C421.546875 309.1946582 421.546875 317.1146582 421.546875 325.2746582 C418.546875 328.2746582 418.546875 328.2746582 415.078125 328.6027832 C413.73416451 328.59217996 412.3902536 328.56559927 411.046875 328.5246582 C410.37011719 328.51950195 409.69335938 328.5143457 408.99609375 328.5090332 C405.92729763 328.46061038 403.47604308 328.25104756 400.546875 327.2746582 C399.886875 327.6046582 399.226875 327.9346582 398.546875 328.2746582 C392.71496523 328.55991662 386.88192803 328.58838061 381.04370117 328.62475586 C379.0891532 328.64134325 377.13466657 328.66866977 375.18041992 328.70678711 C372.36605294 328.76140734 369.553106 328.78340362 366.73828125 328.7980957 C365.42568077 328.83209976 365.42568077 328.83209976 364.08656311 328.86679077 C363.27239426 328.86394073 362.4582254 328.8610907 361.61938477 328.8581543 C360.90371841 328.86624115 360.18805206 328.874328 359.45069885 328.88265991 C357.546875 328.2746582 357.546875 328.2746582 354.546875 323.2746582 C354.546875 316.3446582 354.546875 309.4146582 354.546875 302.2746582 C272.706875 302.2746582 190.866875 302.2746582 106.546875 302.2746582 C106.546875 309.8646582 106.546875 317.4546582 106.546875 325.2746582 C103.17170334 328.64982987 103.17170334 328.64982987 99.25805664 328.66233826 C97.94576584 328.67719521 97.94576584 328.67719521 96.60696411 328.69235229 C95.64998627 328.68785065 94.69300842 328.683349 93.70703125 328.67871094 C92.19204544 328.68900581 92.19204544 328.68900581 90.64645386 328.69950867 C87.3006188 328.71784305 83.95524962 328.71392995 80.609375 328.70825195 C78.28914232 328.71281026 75.96891099 328.71811477 73.64868164 328.72413635 C68.78298461 328.7330803 63.9174516 328.7306293 59.05175781 328.72070312 C52.80681924 328.70920663 46.56244552 328.72942937 40.31758118 328.75862026 C35.52555731 328.7769375 30.73366995 328.77669882 25.94161987 328.77098274 C23.63865364 328.77082901 21.33567845 328.77691613 19.03274536 328.78927422 C15.81703908 328.80409919 12.60239118 328.79356956 9.38671875 328.77636719 C8.42974091 328.78603516 7.47276306 328.79570312 6.48678589 328.80566406 C0.08488633 328.73370156 0.08488633 328.73370156 -2.54321289 326.49134827 C-3.9824614 322.98511087 -3.885044 319.49969031 -3.828125 315.7746582 C-3.83972656 315.01540039 -3.85132813 314.25614258 -3.86328125 313.47387695 C-3.8379248 308.64769938 -3.47208097 307.29993284 -0.453125 303.2746582 C7.466875 303.2746582 15.386875 303.2746582 23.546875 303.2746582 C23.546875 237.9346582 23.546875 172.5946582 23.546875 105.2746582 C13.646875 105.2746582 3.746875 105.2746582 -6.453125 105.2746582 C-10.453125 102.2746582 -10.453125 102.2746582 -10.95369625 100.34936428 C-10.95401018 99.25125722 -10.95401018 99.25125722 -10.95433044 98.13096619 C-10.96416458 97.28831711 -10.97399872 96.44566803 -10.98413086 95.57748413 C-10.96962891 94.19576523 -10.96962891 94.19576523 -10.95483398 92.78613281 C-10.96023697 91.81355026 -10.96563995 90.84096771 -10.97120667 89.83891296 C-10.98373372 86.61796824 -10.96717734 83.39791035 -10.94921875 80.17700195 C-10.94937363 77.94405571 -10.95086082 75.7111092 -10.95362854 73.47816467 C-10.95501428 68.79652028 -10.94242399 64.11518159 -10.91967773 59.43359375 C-10.89127643 53.42178162 -10.89403267 47.41047707 -10.90676785 41.39862728 C-10.9137101 36.78763973 -10.90595264 32.17677028 -10.89351082 27.56579781 C-10.88898333 25.34854141 -10.88867077 23.1312724 -10.89257622 20.91401482 C-10.8954746 17.82034007 -10.87904773 14.7273744 -10.85717773 11.63378906 C-10.86167938 10.7106189 -10.86618103 9.78744873 -10.87081909 8.83630371 C-10.85596214 7.57655983 -10.85596214 7.57655983 -10.84080505 6.29136658 C-10.83716021 5.19382506 -10.83716021 5.19382506 -10.83344173 4.07411098 C-9.76959017 -0.95945838 -4.02015475 -0.01395178 0 0 Z " fill="#FEBA4A" transform="translate(10.453125,130.725341796875)"/>
<path d="M0 0 C1.76591582 -0.02502155 3.53235088 -0.02199314 5.29827881 0.00215912 C6.27061085 -0.0042297 7.24294289 -0.01061852 8.24473953 -0.01720095 C11.51788171 -0.03251754 14.78982634 -0.01194496 18.06292725 0.0083847 C20.40330406 0.00488553 22.74367851 -0.00077075 25.08404541 -0.00843048 C31.45179167 -0.02271714 37.81910814 -0.00557862 44.18681335 0.01785469 C50.16612953 0.03587954 56.14542195 0.03272047 62.12475634 0.03037685 C73.97271012 0.02668478 85.82049628 0.04752845 97.668396 0.08162689 C109.17104326 0.11471951 120.67351458 0.12888543 132.1762085 0.12264252 C144.69490203 0.11588163 157.2135218 0.11833013 169.73220444 0.13800192 C170.39391923 0.1390414 171.05563402 0.14008089 171.73740077 0.14115188 C172.39666411 0.14218902 173.05592744 0.14322617 173.73516846 0.14429474 C179.03018272 0.15248538 184.32515815 0.15517523 189.62017822 0.1536026 C195.85164644 0.15272588 202.08290331 0.16688264 208.3143158 0.19282913 C210.60610429 0.2000125 212.89791523 0.2020642 215.18971252 0.1987114 C218.30881554 0.19501763 221.42729452 0.20967096 224.54632568 0.2292099 C225.46158649 0.22388197 226.37684731 0.21855405 227.31984329 0.21306467 C228.56960009 0.22664963 228.56960009 0.22664963 229.84460449 0.24050903 C230.56482662 0.24208024 231.28504875 0.24365144 232.02709579 0.24527025 C234.49590248 0.73812955 235.39200347 1.65948531 236.92230225 3.62361908 C237.29982567 6.06149292 237.29982567 6.06149292 237.30325317 9.01338959 C237.31171265 10.13226059 237.32017212 11.25113159 237.32888794 12.40390778 C237.3197789 14.24613167 237.3197789 14.24613167 237.31048584 16.1255722 C237.31837128 18.06483833 237.31837128 18.06483833 237.32641602 20.04328156 C237.34010539 23.59079846 237.33478444 27.13805395 237.32527876 30.68557549 C237.31769049 34.39576555 237.32472545 38.10593303 237.32943726 41.81612396 C237.33489725 48.04708124 237.32769685 54.27793189 237.31341553 60.50887299 C237.29708847 67.71565117 237.30237681 74.92217476 237.31889474 82.12894678 C237.33250272 88.3133139 237.33443267 94.49760431 237.32657874 100.68198156 C237.3218984 104.37705249 237.32128718 108.07200369 237.3311882 111.76706696 C237.34145235 115.88542036 237.32723179 120.0033339 237.31048584 124.12166595 C237.31655853 125.34981522 237.32263123 126.57796448 237.32888794 127.84333038 C237.31619873 129.52163689 237.31619873 129.52163689 237.30325317 131.23384857 C237.3021221 132.20797447 237.30099102 133.18210037 237.29982567 134.18574524 C236.84619675 137.11507364 236.21230937 137.80937969 233.92230225 139.62361908 C232.02709579 140.00196791 232.02709579 140.00196791 229.84460449 140.00672913 C229.0114333 140.01578577 228.1782621 140.02484241 227.31984329 140.03417349 C225.94695208 140.0261816 225.94695208 140.0261816 224.54632568 140.01802826 C223.57399364 140.02411936 222.60166161 140.03021047 221.59986496 140.03648615 C218.32701853 140.05319533 215.05455778 140.04832904 211.78167725 140.04354095 C209.44130038 140.05087661 207.10092715 140.05946136 204.76055908 140.06920624 C198.39293792 140.09148221 192.02544592 140.09434993 185.65779114 140.09245872 C181.01764981 140.09235435 176.37753546 140.09878648 171.73740077 140.10608628 C170.74482859 140.10764551 170.74482859 140.10764551 169.73220444 140.10923624 C169.06812686 140.11027977 168.40404929 140.1113233 167.71984816 140.11239845 C155.15550424 140.13130809 142.59121869 140.13024823 130.02686644 140.12342912 C118.52504175 140.11785142 107.02343966 140.13868731 95.521667 140.17178959 C83.7185588 140.20549619 71.91555731 140.22069884 60.11240005 140.21607256 C53.48300334 140.213825 46.85378708 140.21956894 40.22442627 140.24396515 C33.99289258 140.26613871 27.76182403 140.26443268 21.5302887 140.24403763 C19.23848616 140.24061107 16.94665286 140.24578678 14.65489197 140.26002121 C11.53546963 140.278065 8.41765044 140.26557524 5.29827881 140.24507904 C4.383018 140.25759689 3.46775719 140.27011474 2.5247612 140.28301191 C0.2178837 140.25032539 -1.83729498 140.17167506 -4.07769775 139.62361908 C-7.11236769 136.39015119 -7.45343885 133.48923312 -7.45864868 129.15865326 C-7.46710815 128.07357986 -7.47556763 126.98850647 -7.48428345 125.87055206 C-7.47821075 124.6901384 -7.47213806 123.50972473 -7.46588135 122.29354095 C-7.47113831 121.04263168 -7.47639526 119.79172241 -7.48181152 118.5029068 C-7.49274313 115.0792308 -7.49019483 111.65609962 -7.48067427 108.2324543 C-7.47306757 104.64599766 -7.48012608 101.05956396 -7.48483276 97.47310638 C-7.49028739 91.45080649 -7.48310646 85.42861704 -7.46881104 79.40633392 C-7.452485 72.44835099 -7.45777372 65.49063179 -7.47429025 58.53265524 C-7.48791353 52.55373426 -7.48982069 46.57489258 -7.48197424 40.59596109 C-7.47730233 37.02716913 -7.47665954 33.45850105 -7.48658371 29.8897171 C-7.49687557 25.91093988 -7.48260212 21.932457 -7.46588135 17.9536972 C-7.47195404 16.77328354 -7.47802673 15.59286987 -7.48428345 14.3766861 C-7.47582397 13.2916127 -7.4673645 12.20653931 -7.45864868 11.0885849 C-7.4575176 10.1483976 -7.45638653 9.2082103 -7.45522118 8.23953247 C-6.70525561 3.04291457 -5.3958989 0.4197687 0 0 Z " fill="#B0E7FD" transform="translate(126.07769775390625,76.37638092041016)"/>
<path d="M0 0 C29.49798312 -0.16065467 29.49798312 -0.16065467 44.0663147 -0.20101547 C51.94600053 -0.22318292 59.82551704 -0.25132776 67.70507812 -0.30175781 C73.94356909 -0.34166576 80.1819323 -0.36744227 86.42054737 -0.37635398 C89.72298191 -0.38156218 93.02496642 -0.39588259 96.32730484 -0.42292023 C100.01676413 -0.45192788 103.70546468 -0.45595692 107.39501953 -0.45410156 C108.48618576 -0.46848267 109.57735199 -0.48286377 110.70158386 -0.49768066 C116.57325194 -0.46569923 120.53384885 -0.25105934 125 4 C127.16624748 7.74581407 127.24417797 11.07759603 127.22705078 15.35083008 C127.22689972 16.6117598 127.22674866 17.87268951 127.22659302 19.17182922 C127.21638136 20.53773152 127.2059494 21.90363219 127.1953125 23.26953125 C127.19157941 24.67485859 127.18873383 26.08018853 127.18673706 27.48551941 C127.17912389 31.17299668 127.15949553 34.86031482 127.1373291 38.54772949 C127.11682059 42.31500089 127.10772467 46.08229816 127.09765625 49.84960938 C127.07624725 57.23314523 127.04213954 64.61655026 127 72 C127.81678223 71.98428955 128.63356445 71.9685791 129.47509766 71.95239258 C133.19166077 71.8898606 136.90811296 71.85095056 140.625 71.8125 C141.91019531 71.78736328 143.19539062 71.76222656 144.51953125 71.73632812 C146.38544922 71.72182617 146.38544922 71.72182617 148.2890625 71.70703125 C150.00150146 71.68346558 150.00150146 71.68346558 151.74853516 71.65942383 C155.47046733 72.04927932 157.82583569 73.04171076 161 75 C163.40119059 78.60178588 163.43771322 81.50866369 163.625 85.6875 C163.68300781 86.7403418 163.68300781 86.7403418 163.7421875 87.81445312 C163.8362334 89.54254655 163.9191968 91.27123675 164 93 C164.33 92.67 164.66 92.34 165 92 C167.67058851 91.85884839 170.32432238 91.95752893 173 92 C172.97679687 91.04738281 172.95359375 90.09476562 172.9296875 89.11328125 C172.91164063 87.85902344 172.89359375 86.60476563 172.875 85.3125 C172.85179687 84.07113281 172.82859375 82.82976562 172.8046875 81.55078125 C173 78 173 78 174.1328125 75.29296875 C175.29039523 73.04661662 175.29039523 73.04661662 174.14453125 71.08984375 C173.76683594 70.40019531 173.38914062 69.71054687 173 69 C172.69921875 65.94140625 172.69921875 65.94140625 172.6875 62.5625 C172.67074219 61.45003906 172.65398437 60.33757812 172.63671875 59.19140625 C173.0542656 55.5232796 173.65807393 53.85006106 176 51 C179.15663147 50.38526917 179.15663147 50.38526917 183.10180664 50.40063477 C183.82079636 50.39669205 184.53978607 50.39274933 185.28056335 50.38868713 C187.65780242 50.3819724 190.03312273 50.41114305 192.41015625 50.44140625 C194.06017179 50.44565569 195.7101933 50.44798485 197.36021423 50.44847107 C200.81797377 50.45463903 204.27508614 50.47735199 207.73266602 50.51293945 C212.17055871 50.55824797 216.60786545 50.5729669 221.04596806 50.57667637 C224.45256865 50.58109935 227.85904557 50.59639261 231.26559258 50.6155529 C232.90229714 50.62444786 234.53901495 50.63117165 236.17573738 50.63571358 C238.45991463 50.64473063 240.74355526 50.66709739 243.02758789 50.69360352 C244.3287001 50.70424332 245.62981232 50.71488312 246.97035217 50.72584534 C250 51 250 51 252 53 C252.25878906 54.83178711 252.25878906 54.83178711 252.265625 57.02734375 C252.26820313 57.81947266 252.27078125 58.61160156 252.2734375 59.42773438 C252.26570312 60.25595703 252.25796875 61.08417969 252.25 61.9375 C252.25773438 62.76185547 252.26546875 63.58621094 252.2734375 64.43554688 C252.27085937 65.22896484 252.26828125 66.02238281 252.265625 66.83984375 C252.26336914 67.56550537 252.26111328 68.29116699 252.25878906 69.03881836 C252 71 252 71 250 74 C250.66 74.66 251.32 75.32 252 76 C252.14507695 78.74485593 252.18652423 81.38480543 252.125 84.125 C252.11597656 84.87910156 252.10695313 85.63320313 252.09765625 86.41015625 C252.0740687 88.27357254 252.03819719 90.13682593 252 92 C253.98567708 91.93489583 255.97135417 91.86979167 257.95703125 91.8046875 C260 92 260 92 263 94 C263.30196494 97.03875961 263.40922151 99.87436257 263.38818359 102.91601562 C263.39606903 104.30151863 263.39606903 104.30151863 263.40411377 105.7150116 C263.41735555 108.77892798 263.40856088 111.84232801 263.3984375 114.90625 C263.40045703 117.02852478 263.40336746 119.15079889 263.40713501 121.27307129 C263.41156403 125.72524611 263.40510867 130.17724063 263.39111328 134.62939453 C263.37402117 140.34640098 263.38385925 146.06298496 263.40183067 151.77997589 C263.41265287 156.16362715 263.40922936 160.54717767 263.4014473 164.93083191 C263.39944096 167.03924102 263.40191968 169.14765918 263.40888596 171.25605774 C263.4164747 174.19894768 263.40493243 177.14114615 263.38818359 180.08398438 C263.39425629 180.96197189 263.40032898 181.83995941 263.40658569 182.74455261 C263.38095093 185.16638184 263.38095093 185.16638184 263 189 C259.40259819 191.39826787 256.66533639 191.40179712 252.5 191.4375 C251.82324219 191.47037109 251.14648438 191.50324219 250.44921875 191.53710938 C248.46875 191.55859375 248.46875 191.55859375 245 191 C242 186 242 186 242 164 C222.53 164 203.06 164 183 164 C183 171.92 183 179.84 183 188 C180 191 180 191 176.53125 191.328125 C175.18728951 191.31752176 173.8433786 191.29094106 172.5 191.25 C171.82324219 191.24484375 171.14648438 191.2396875 170.44921875 191.234375 C167.38042263 191.18595218 164.92916808 190.97638936 162 190 C161.34 190.33 160.68 190.66 160 191 C154.16809023 191.28525842 148.33505303 191.31372241 142.49682617 191.35009766 C140.5422782 191.36668505 138.58779157 191.39401157 136.63354492 191.43212891 C133.81917794 191.48674914 131.006231 191.50874541 128.19140625 191.5234375 C126.87880577 191.55744156 126.87880577 191.55744156 125.53968811 191.59213257 C124.72551926 191.58928253 123.9113504 191.5864325 123.07250977 191.58349609 C122.35684341 191.59158295 121.64117706 191.5996698 120.90382385 191.60800171 C119 191 119 191 116 186 C116 160.99777788 116.53707526 135.99793615 117 111 C78.39 111 39.78 111 0 111 C0 74.37 0 37.74 0 0 Z " fill="#FBC86B" transform="translate(249,268)"/>
<path d="M0 0 C4.95 0 9.9 0 15 0 C15 36.63 15 73.26 15 111 C53.61 111 92.22 111 132 111 C132 128.82 132 146.64 132 165 C49.83 165 -32.34 165 -117 165 C-117 147.18 -117 129.36 -117 111 C-78.39 111 -39.78 111 0 111 C0 74.37 0 37.74 0 0 Z " fill="#FE9F3D" transform="translate(234,268)"/>
<path d="M0 0 C1.76591582 -0.02502155 3.53235088 -0.02199314 5.29827881 0.00215912 C6.27061085 -0.0042297 7.24294289 -0.01061852 8.24473953 -0.01720095 C11.51788171 -0.03251754 14.78982634 -0.01194496 18.06292725 0.0083847 C20.40330406 0.00488553 22.74367851 -0.00077075 25.08404541 -0.00843048 C31.45179167 -0.02271714 37.81910814 -0.00557862 44.18681335 0.01785469 C50.16612953 0.03587954 56.14542195 0.03272047 62.12475634 0.03037685 C73.97271012 0.02668478 85.82049628 0.04752845 97.668396 0.08162689 C109.17104326 0.11471951 120.67351458 0.12888543 132.1762085 0.12264252 C144.69490203 0.11588163 157.2135218 0.11833013 169.73220444 0.13800192 C170.39391923 0.1390414 171.05563402 0.14008089 171.73740077 0.14115188 C172.39666411 0.14218902 173.05592744 0.14322617 173.73516846 0.14429474 C179.03018272 0.15248538 184.32515815 0.15517523 189.62017822 0.1536026 C195.85164644 0.15272588 202.08290331 0.16688264 208.3143158 0.19282913 C210.60610429 0.2000125 212.89791523 0.2020642 215.18971252 0.1987114 C218.30881554 0.19501763 221.42729452 0.20967096 224.54632568 0.2292099 C225.46158649 0.22388197 226.37684731 0.21855405 227.31984329 0.21306467 C228.56960009 0.22664963 228.56960009 0.22664963 229.84460449 0.24050903 C230.56482662 0.24208024 231.28504875 0.24365144 232.02709579 0.24527025 C234.49590248 0.73812955 235.39200347 1.65948531 236.92230225 3.62361908 C237.29982567 6.06149292 237.29982567 6.06149292 237.30325317 9.01338959 C237.31171265 10.13226059 237.32017212 11.25113159 237.32888794 12.40390778 C237.3197789 14.24613167 237.3197789 14.24613167 237.31048584 16.1255722 C237.31837128 18.06483833 237.31837128 18.06483833 237.32641602 20.04328156 C237.34010539 23.59079846 237.33478444 27.13805395 237.32527876 30.68557549 C237.31769049 34.39576555 237.32472545 38.10593303 237.32943726 41.81612396 C237.33489725 48.04708124 237.32769685 54.27793189 237.31341553 60.50887299 C237.29708847 67.71565117 237.30237681 74.92217476 237.31889474 82.12894678 C237.33250272 88.3133139 237.33443267 94.49760431 237.32657874 100.68198156 C237.3218984 104.37705249 237.32128718 108.07200369 237.3311882 111.76706696 C237.34145235 115.88542036 237.32723179 120.0033339 237.31048584 124.12166595 C237.31655853 125.34981522 237.32263123 126.57796448 237.32888794 127.84333038 C237.31619873 129.52163689 237.31619873 129.52163689 237.30325317 131.23384857 C237.3021221 132.20797447 237.30099102 133.18210037 237.29982567 134.18574524 C236.84619675 137.11507364 236.21230937 137.80937969 233.92230225 139.62361908 C232.02709579 140.00196791 232.02709579 140.00196791 229.84460449 140.00672913 C229.0114333 140.01578577 228.1782621 140.02484241 227.31984329 140.03417349 C225.94695208 140.0261816 225.94695208 140.0261816 224.54632568 140.01802826 C223.57399364 140.02411936 222.60166161 140.03021047 221.59986496 140.03648615 C218.32701853 140.05319533 215.05455778 140.04832904 211.78167725 140.04354095 C209.44130038 140.05087661 207.10092715 140.05946136 204.76055908 140.06920624 C198.39293792 140.09148221 192.02544592 140.09434993 185.65779114 140.09245872 C181.01764981 140.09235435 176.37753546 140.09878648 171.73740077 140.10608628 C170.74482859 140.10764551 170.74482859 140.10764551 169.73220444 140.10923624 C169.06812686 140.11027977 168.40404929 140.1113233 167.71984816 140.11239845 C155.15550424 140.13130809 142.59121869 140.13024823 130.02686644 140.12342912 C118.52504175 140.11785142 107.02343966 140.13868731 95.521667 140.17178959 C83.7185588 140.20549619 71.91555731 140.22069884 60.11240005 140.21607256 C53.48300334 140.213825 46.85378708 140.21956894 40.22442627 140.24396515 C33.99289258 140.26613871 27.76182403 140.26443268 21.5302887 140.24403763 C19.23848616 140.24061107 16.94665286 140.24578678 14.65489197 140.26002121 C11.53546963 140.278065 8.41765044 140.26557524 5.29827881 140.24507904 C4.383018 140.25759689 3.46775719 140.27011474 2.5247612 140.28301191 C0.2178837 140.25032539 -1.83729498 140.17167506 -4.07769775 139.62361908 C-7.11236769 136.39015119 -7.45343885 133.48923312 -7.45864868 129.15865326 C-7.46710815 128.07357986 -7.47556763 126.98850647 -7.48428345 125.87055206 C-7.47821075 124.6901384 -7.47213806 123.50972473 -7.46588135 122.29354095 C-7.47113831 121.04263168 -7.47639526 119.79172241 -7.48181152 118.5029068 C-7.49274313 115.0792308 -7.49019483 111.65609962 -7.48067427 108.2324543 C-7.47306757 104.64599766 -7.48012608 101.05956396 -7.48483276 97.47310638 C-7.49028739 91.45080649 -7.48310646 85.42861704 -7.46881104 79.40633392 C-7.452485 72.44835099 -7.45777372 65.49063179 -7.47429025 58.53265524 C-7.48791353 52.55373426 -7.48982069 46.57489258 -7.48197424 40.59596109 C-7.47730233 37.02716913 -7.47665954 33.45850105 -7.48658371 29.8897171 C-7.49687557 25.91093988 -7.48260212 21.932457 -7.46588135 17.9536972 C-7.47195404 16.77328354 -7.47802673 15.59286987 -7.48428345 14.3766861 C-7.47582397 13.2916127 -7.4673645 12.20653931 -7.45864868 11.0885849 C-7.4575176 10.1483976 -7.45638653 9.2082103 -7.45522118 8.23953247 C-6.70525561 3.04291457 -5.3958989 0.4197687 0 0 Z M15.92230225 23.62361908 C15.82173533 26.50967924 15.7861485 29.37184483 15.79290771 32.2583847 C15.7911554 33.1640065 15.78940308 34.0696283 15.78759766 35.00269318 C15.78317771 38.01177101 15.78611763 41.0207906 15.78948975 44.02986908 C15.78881675 46.11112733 15.78784676 48.19238551 15.78659058 50.27364349 C15.78511341 54.64177446 15.78726876 59.00988501 15.79193115 63.37801361 C15.79762845 68.99076461 15.79434954 74.6034678 15.78835869 80.21621704 C15.78475358 84.51573297 15.78589143 88.81523746 15.78848648 93.11475372 C15.78915589 95.18491369 15.78832684 97.25507468 15.78600693 99.32523346 C15.78348123 102.21313494 15.78731982 105.10095786 15.79290771 107.98885345 C15.79088348 108.85330582 15.78885925 109.71775818 15.78677368 110.60840607 C15.42673209 114.42431061 15.42673209 114.42431061 16.92230225 117.62361908 C19.44706226 117.72579766 21.94461836 117.76248889 24.47001648 117.75733185 C25.26983604 117.7595974 26.06965559 117.76186296 26.8937121 117.76419717 C29.59458138 117.77056653 32.29540086 117.76970594 34.99627686 117.76888275 C36.92418992 117.77187241 38.85210238 117.77527449 40.78001404 117.77906036 C46.03199092 117.78792411 51.28395153 117.79023947 56.53593516 117.79087615 C60.91246164 117.79182323 65.28898428 117.79549919 69.66550928 117.79904824 C79.98637908 117.80720178 90.30724015 117.80963166 100.62811279 117.80892181 C111.293014 117.80832073 121.95786467 117.81887651 132.62275308 117.83466548 C141.76328328 117.84771805 150.90379692 117.85310668 160.04433638 117.8524664 C165.5105778 117.85221075 170.97677434 117.85509895 176.44300652 117.86564445 C181.58193183 117.87528717 186.72076902 117.87543108 191.85969734 117.86812782 C193.75038913 117.8670772 195.64108629 117.86947291 197.5317688 117.87548828 C200.10381948 117.88314414 202.6755609 117.87860635 205.24760437 117.87085724 C206.38178147 117.87857258 206.38178147 117.87857258 207.53887123 117.88644379 C211.68562723 117.99233639 211.68562723 117.99233639 214.92230225 115.62361908 C215.1210509 112.74236067 215.19497369 109.95719843 215.18109131 107.07479095 C215.18459595 106.19013657 215.18810059 105.30548218 215.19171143 104.39402008 C215.2005379 101.46005737 215.19467636 98.52633438 215.18792725 95.59236908 C215.18927363 93.55977583 215.19121394 91.5271829 215.19372559 89.49459076 C215.19667809 85.23076568 215.19237513 80.96702429 215.18304443 76.70320892 C215.17164985 71.22841735 215.17820865 65.75382185 215.19018936 60.27903748 C215.19740454 56.08069624 215.19512161 51.88240176 215.18993378 47.68405914 C215.18859633 45.66496508 215.19024829 43.64586681 215.19489288 41.62677765 C215.19995249 38.80855256 215.19225587 35.9906483 215.18109131 33.1724472 C215.187164 31.91157036 215.187164 31.91157036 215.19335938 30.62522125 C215.35044729 26.15185206 215.35044729 26.15185206 212.92230225 22.62361908 C210.32874934 22.42826595 207.84215615 22.35873124 205.24760437 22.37638092 C204.44622482 22.3739665 203.64484528 22.37155209 202.8191815 22.36906451 C200.11901719 22.36340381 197.41908699 22.37210838 194.71893311 22.38069916 C192.78925004 22.37962687 190.85956728 22.37768899 188.92988586 22.37494659 C183.67800692 22.37008689 178.42621254 22.37776769 173.17434382 22.38789964 C167.68949776 22.39666067 162.20465449 22.39492308 156.71980286 22.39453888 C147.50856098 22.39547633 138.29735198 22.40417165 129.08612061 22.41780853 C118.42062329 22.43353956 107.75516199 22.43880652 97.08965391 22.43807298 C86.84875609 22.43746364 76.60787007 22.44256015 66.36697578 22.45086479 C61.99975047 22.45440487 57.63252933 22.45622907 53.26530266 22.4567585 C48.12802361 22.45775954 42.99077508 22.46383648 37.85350609 22.47392464 C35.96239661 22.47685722 34.07128363 22.47807348 32.18017197 22.4774971 C29.61008719 22.47701001 27.04008922 22.48262636 24.47001648 22.48990631 C23.71166769 22.48835771 22.95331891 22.48680911 22.17198986 22.48521358 C18.75915123 22.1960929 18.75915123 22.1960929 15.92230225 23.62361908 Z " fill="#AA5436" transform="translate(126.07769775390625,76.37638092041016)"/>
<path d="M0 0 C29.49798312 -0.16065467 29.49798312 -0.16065467 44.0663147 -0.20101547 C51.94600053 -0.22318292 59.82551704 -0.25132776 67.70507812 -0.30175781 C73.94356909 -0.34166576 80.1819323 -0.36744227 86.42054737 -0.37635398 C89.72298191 -0.38156218 93.02496642 -0.39588259 96.32730484 -0.42292023 C100.01676413 -0.45192788 103.70546468 -0.45595692 107.39501953 -0.45410156 C108.48618576 -0.46848267 109.57735199 -0.48286377 110.70158386 -0.49768066 C116.57325194 -0.46569923 120.53384885 -0.25105934 125 4 C127.16624748 7.74581407 127.24417797 11.07759603 127.22705078 15.35083008 C127.22689972 16.6117598 127.22674866 17.87268951 127.22659302 19.17182922 C127.21638136 20.53773152 127.2059494 21.90363219 127.1953125 23.26953125 C127.19157941 24.67485859 127.18873383 26.08018853 127.18673706 27.48551941 C127.17912389 31.17299668 127.15949553 34.86031482 127.1373291 38.54772949 C127.11682059 42.31500089 127.10772467 46.08229816 127.09765625 49.84960938 C127.07624725 57.23314523 127.04213954 64.61655026 127 72 C125.2421875 72.94401042 123.484375 73.88802083 121.7265625 74.83203125 C119.69497635 76.04763493 119.69497635 76.04763493 118 79 C117.67 89.56 117.34 100.12 117 111 C78.39 111 39.78 111 0 111 C0 74.37 0 37.74 0 0 Z " fill="#FEBA4A" transform="translate(249,268)"/>
<path d="M0 0 C0.75639771 -0.00511093 1.51279541 -0.01022186 2.29211426 -0.01548767 C4.79378152 -0.02939427 7.29517367 -0.02842632 9.796875 -0.02612305 C11.53418073 -0.03000901 13.27148552 -0.03434347 15.00878906 -0.03910828 C18.65042196 -0.04657249 22.2919579 -0.04627748 25.93359375 -0.04101562 C30.60458497 -0.03521656 35.27518023 -0.05216141 39.94610596 -0.0753603 C43.53371508 -0.0900771 47.12122835 -0.09097223 50.7088623 -0.08785057 C52.4312824 -0.08836468 54.15370774 -0.09361924 55.87609863 -0.10366249 C58.28224597 -0.11597193 60.68761552 -0.10926918 63.09375 -0.09765625 C63.80760864 -0.10529999 64.52146729 -0.11294373 65.25695801 -0.12081909 C70.09049996 -0.06914349 70.09049996 -0.06914349 72.22900486 1.54185963 C73.84148445 3.66202478 73.9256794 4.73130683 73.93455505 7.37365723 C73.94445969 8.20644699 73.95436432 9.03923676 73.96456909 9.89726257 C73.96006744 10.80748672 73.9555658 11.71771088 73.95092773 12.65551758 C73.95779099 13.61674026 73.96465424 14.57796295 73.97172546 15.5683136 C73.99005624 18.75182789 73.9861473 21.93485237 73.98046875 25.1184082 C73.98502723 27.32653973 73.9903318 29.53466983 73.99635315 31.74279785 C74.00529638 36.37310547 74.00284693 41.00324072 73.99291992 45.63354492 C73.9814234 51.57582355 74.00164645 57.51750856 74.03083706 63.45970917 C74.04915595 68.02011919 74.0489153 72.5803858 74.04319954 77.14082336 C74.04304582 79.33214654 74.04913128 81.52347913 74.06149101 83.71476746 C74.07631926 86.77482699 74.06578423 89.83377481 74.04858398 92.89379883 C74.05825195 93.80402298 74.06791992 94.71424713 74.07788086 95.65205383 C74.00680592 101.67093269 74.00680592 101.67093269 71.97596741 104.33670044 C68.69341241 105.60421004 65.64754653 105.69336284 62.1796875 105.6628418 C61.07654205 105.67072723 61.07654205 105.67072723 59.95111084 105.67877197 C57.5244817 105.69195639 55.09851061 105.68323977 52.671875 105.6730957 C50.9832344 105.6751169 49.29459465 105.67802871 47.60595703 105.68179321 C44.06860027 105.68621444 40.53147093 105.67979207 36.99414062 105.66577148 C32.46112974 105.6486796 27.92865174 105.65852188 23.3956604 105.67648888 C19.90922026 105.68733221 16.42290635 105.68387787 12.9364624 105.6761055 C11.26511573 105.67410501 9.59375758 105.67655748 7.92242432 105.68354416 C5.58599515 105.69116781 3.25042754 105.67954246 0.9140625 105.6628418 C0.22407166 105.66891449 -0.46591919 105.67498718 -1.17681885 105.6812439 C-3.96369014 105.64436077 -6.27499066 105.34294865 -8.88221741 104.34342957 C-11.53013769 100.8563106 -10.99946442 97.03843728 -10.95483398 92.78613281 C-10.96023697 91.81355026 -10.96563995 90.84096771 -10.97120667 89.83891296 C-10.98373372 86.61796824 -10.96717734 83.39791035 -10.94921875 80.17700195 C-10.94937363 77.94405571 -10.95086082 75.7111092 -10.95362854 73.47816467 C-10.95501428 68.79652028 -10.94242399 64.11518159 -10.91967773 59.43359375 C-10.89127643 53.42178162 -10.89403267 47.41047707 -10.90676785 41.39862728 C-10.9137101 36.78763973 -10.90595264 32.17677028 -10.89351082 27.56579781 C-10.88898333 25.34854141 -10.88867077 23.1312724 -10.89257622 20.91401482 C-10.8954746 17.82034007 -10.87904773 14.7273744 -10.85717773 11.63378906 C-10.86167938 10.7106189 -10.86618103 9.78744873 -10.87081909 8.83630371 C-10.85596214 7.57655983 -10.85596214 7.57655983 -10.84080505 6.29136658 C-10.83716021 5.19382506 -10.83716021 5.19382506 -10.83344173 4.07411098 C-9.76959017 -0.95945838 -4.02015475 -0.01395178 0 0 Z " fill="#FE9E3C" transform="translate(10.453125,130.725341796875)"/>
<path d="M0 0 C1.30190781 0.00507065 2.60381561 0.0101413 3.94517517 0.0153656 C4.66416489 0.01142288 5.3831546 0.00748016 6.12393188 0.00341797 C8.50117095 -0.00329677 10.87649126 0.02587389 13.25352478 0.05613708 C14.90354032 0.06038652 16.55356183 0.06271568 18.20358276 0.0632019 C21.6613423 0.06936986 25.11845467 0.09208282 28.57603455 0.12767029 C33.01392724 0.1729788 37.45123398 0.18769774 41.88933659 0.1914072 C45.29593718 0.19583019 48.7024141 0.21112345 52.10896111 0.23028374 C53.74566567 0.2391787 55.38238348 0.24590249 57.01910591 0.25044441 C59.30328316 0.25946146 61.58692379 0.28182823 63.87095642 0.30833435 C65.17206863 0.31897415 66.47318085 0.32961395 67.8137207 0.34057617 C70.84336853 0.61473083 70.84336853 0.61473083 72.84336853 2.61473083 C73.10215759 4.44651794 73.10215759 4.44651794 73.10899353 6.64207458 C73.11286072 7.83026794 73.11286072 7.83026794 73.11680603 9.04246521 C73.10907166 9.87068787 73.10133728 10.69891052 73.09336853 11.55223083 C73.10497009 12.78876404 73.10497009 12.78876404 73.11680603 14.05027771 C73.11422791 14.84369568 73.11164978 15.63711365 73.10899353 16.45457458 C73.10673767 17.18023621 73.10448181 17.90589783 73.10215759 18.65354919 C72.84336853 20.61473083 72.84336853 20.61473083 70.84336853 23.61473083 C71.83336853 24.60473083 71.83336853 24.60473083 72.84336853 25.61473083 C72.98844548 28.35958676 73.02989276 30.99953626 72.96836853 33.73973083 C72.95934509 34.4938324 72.95032166 35.24793396 72.94102478 36.02488708 C72.91743723 37.88830338 72.88156572 39.75155676 72.84336853 41.61473083 C74.82904561 41.54962667 76.8147227 41.4845225 78.80039978 41.41941833 C80.84336853 41.61473083 80.84336853 41.61473083 83.84336853 43.61473083 C83.84336853 59.12473083 83.84336853 74.63473083 83.84336853 90.61473083 C50.84336853 90.61473083 17.84336853 90.61473083 -16.15663147 90.61473083 C-16.15663147 43.61473083 -16.15663147 43.61473083 -14.15663147 41.61473083 C-11.46823762 41.34481177 -8.86521211 41.52735727 -6.15663147 41.61473083 C-6.17983459 40.66211365 -6.20303772 39.70949646 -6.22694397 38.72801208 C-6.24499084 37.47375427 -6.26303772 36.21949646 -6.28163147 34.92723083 C-6.30483459 33.68586365 -6.32803772 32.44449646 -6.35194397 31.16551208 C-6.15663147 27.61473083 -6.15663147 27.61473083 -5.02381897 24.90769958 C-3.86623624 22.66134746 -3.86623624 22.66134746 -5.01210022 20.70457458 C-5.38979553 20.01492615 -5.76749084 19.32527771 -6.15663147 18.61473083 C-6.45741272 15.55613708 -6.45741272 15.55613708 -6.46913147 12.17723083 C-6.49426819 10.50853943 -6.49426819 10.50853943 -6.51991272 8.80613708 C-5.96670736 3.94625775 -5.09299983 0.99182438 0 0 Z " fill="#AB5537" transform="translate(428.15663146972656,318.38526916503906)"/>
<path d="M0 0 C5.28 0 10.56 0 16 0 C16 65.67 16 131.34 16 199 C22.6 199 29.2 199 36 199 C35.97381592 196.39593262 35.94763184 193.79186523 35.9206543 191.10888672 C35.83776023 182.4995945 35.78255829 173.89028453 35.74093914 165.28069878 C35.71485912 160.06126652 35.67948984 154.84224357 35.62280273 149.62304688 C35.56842661 144.58502308 35.53856746 139.54739267 35.52561378 134.50909805 C35.516384 132.58814426 35.49836006 130.6672117 35.47134972 128.74642563 C35.43498461 126.05297282 35.43005771 123.36113977 35.43237305 120.66748047 C35.41439667 119.87553787 35.39642029 119.08359528 35.37789917 118.26765442 C35.41527013 114.24267858 35.81037375 111.72773404 38.34797668 108.52078247 C42.0651246 104.98758529 44.61016377 104.87624425 49.54296875 104.90234375 C50.61611328 104.90556641 51.68925781 104.90878906 52.79492188 104.91210938 C53.91447266 104.92048828 55.03402344 104.92886719 56.1875 104.9375 C57.88422852 104.94426758 57.88422852 104.94426758 59.61523438 104.95117188 C62.41020927 104.96296502 65.2050782 104.9794235 68 105 C67.01 105.66 66.02 106.32 65 107 C60.654138 110.74214469 60.654138 110.74214469 58.86857224 115.89036369 C58.86559757 116.66500528 58.86262291 117.43964687 58.85955811 118.23776245 C58.85384796 119.12663147 58.84813782 120.01550049 58.84225464 120.93130493 C58.84113678 121.90900848 58.84001892 122.88671204 58.83886719 123.89404297 C58.83390228 124.92178833 58.82893738 125.94953369 58.82382202 127.00842285 C58.80917678 130.41968446 58.80239466 133.83089958 58.796875 137.2421875 C58.79112575 139.60629275 58.78536799 141.97039797 58.77960205 144.33450317 C58.76908551 149.29608376 58.76324703 154.25764811 58.75976562 159.21923828 C58.75427777 165.58393487 58.73024607 171.94841787 58.70179367 178.31304741 C58.68319165 183.19772981 58.677963 188.08236051 58.67642975 192.96707535 C58.67339748 195.31387628 58.66534974 197.66067618 58.65224457 200.00744247 C58.63523429 203.28751744 58.63705214 206.56706708 58.64355469 209.84716797 C58.6343399 210.82082306 58.62512512 211.79447815 58.6156311 212.79763794 C58.62120026 213.69214661 58.62676941 214.58665527 58.63250732 215.50827026 C58.63104076 216.2836659 58.6295742 217.05906155 58.6280632 217.85795403 C59.09412185 220.5420634 60.24513486 221.95733462 62 224 C50.83887605 224.09258728 39.67784312 224.16370769 28.51641369 224.20724869 C23.33396551 224.22814383 18.15177962 224.25649668 12.96948242 224.30175781 C7.97039008 224.34514676 2.97155038 224.36912258 -2.02771568 224.37950897 C-3.93717109 224.38691285 -5.84661231 224.40137057 -7.75596046 224.42292023 C-10.42591097 224.45186207 -13.09481103 224.45595991 -15.76489258 224.45410156 C-16.95495911 224.47567322 -16.95495911 224.47567322 -18.16906738 224.49768066 C-23.48868968 224.45748674 -23.48868968 224.45748674 -25.98979187 222.21966553 C-27.57546241 218.73557336 -27.43231671 215.25106003 -27.375 211.5 C-27.38660156 210.74074219 -27.39820313 209.98148438 -27.41015625 209.19921875 C-27.3847998 204.37304117 -27.01895597 203.02527463 -24 199 C-16.08 199 -8.16 199 0 199 C0 133.33 0 67.66 0 0 Z " fill="#E5B864" transform="translate(34,235)"/>
<path d="M0 0 C3.59855375 1.19951792 3.98554995 2.08588264 5.9765625 5.21484375 C6.84559204 6.56533813 6.84559204 6.56533813 7.73217773 7.94311523 C8.35680908 8.93126221 8.98144043 9.91940918 9.625 10.9375 C10.98269339 13.05232704 12.34078104 15.166901 13.69921875 17.28125 C14.4061084 18.38726562 15.11299805 19.49328125 15.84130859 20.6328125 C19.33971043 26.08971796 22.88825669 31.51357855 26.4375 36.9375 C27.13560791 38.00661621 27.83371582 39.07573242 28.55297852 40.17724609 C32.21956196 45.78466483 35.90808683 51.37640763 39.6328125 56.9453125 C40.19474052 57.78573845 40.19474052 57.78573845 40.76802063 58.6431427 C42.56668894 61.33167305 44.36897325 64.0176951 46.17553711 66.70092773 C46.80983643 67.64653564 47.44413574 68.59214355 48.09765625 69.56640625 C48.65976807 70.40115479 49.22187988 71.23590332 49.80102539 72.09594727 C51 74 51 74 51 75 C41.15190286 75.39540064 31.30571541 75.69666271 21.45127392 75.88080692 C16.87390978 75.96923834 12.30200387 76.08891205 7.7277832 76.2824707 C-21.8013247 77.50058488 -21.8013247 77.50058488 -28.7855835 73.34100342 C-33.0896488 69.22310074 -36.18059094 63.96645178 -37 58 C-36.32181855 53.68137565 -33.87841616 50.44730615 -31.5 46.875 C-31.0265918 46.1543335 -30.55318359 45.43366699 -30.06542969 44.69116211 C-28.99162298 43.05660096 -27.9156265 41.42347706 -26.83789062 39.79150391 C-24.79232373 36.68456822 -22.7622027 33.56774148 -20.734375 30.44921875 C-19.61114129 28.72375388 -18.48764255 26.99846195 -17.36401367 25.27325439 C-16.27671902 23.60353153 -15.19010867 21.93336312 -14.10351562 20.26318359 C-2.50565555 2.50565555 -2.50565555 2.50565555 0 0 Z " fill="#3EAF91" transform="translate(240,119)"/>
<path d="M0 0 C1.30190781 0.00507065 2.60381561 0.0101413 3.94517517 0.0153656 C4.66416489 0.01142288 5.3831546 0.00748016 6.12393188 0.00341797 C8.50117095 -0.00329677 10.87649126 0.02587389 13.25352478 0.05613708 C14.90354032 0.06038652 16.55356183 0.06271568 18.20358276 0.0632019 C21.6613423 0.06936986 25.11845467 0.09208282 28.57603455 0.12767029 C33.01392724 0.1729788 37.45123398 0.18769774 41.88933659 0.1914072 C45.29593718 0.19583019 48.7024141 0.21112345 52.10896111 0.23028374 C53.74566567 0.2391787 55.38238348 0.24590249 57.01910591 0.25044441 C59.30328316 0.25946146 61.58692379 0.28182823 63.87095642 0.30833435 C65.17206863 0.31897415 66.47318085 0.32961395 67.8137207 0.34057617 C70.84336853 0.61473083 70.84336853 0.61473083 72.84336853 2.61473083 C73.10215759 4.44651794 73.10215759 4.44651794 73.10899353 6.64207458 C73.11286072 7.83026794 73.11286072 7.83026794 73.11680603 9.04246521 C73.10907166 9.87068787 73.10133728 10.69891052 73.09336853 11.55223083 C73.10497009 12.78876404 73.10497009 12.78876404 73.11680603 14.05027771 C73.11422791 14.84369568 73.11164978 15.63711365 73.10899353 16.45457458 C73.10673767 17.18023621 73.10448181 17.90589783 73.10215759 18.65354919 C72.84336853 20.61473083 72.84336853 20.61473083 70.84336853 23.61473083 C71.83336853 24.60473083 71.83336853 24.60473083 72.84336853 25.61473083 C72.84336853 30.89473083 72.84336853 36.17473083 72.84336853 41.61473083 C46.77336853 41.61473083 20.70336853 41.61473083 -6.15663147 41.61473083 C-6.15663147 27.61473083 -6.15663147 27.61473083 -4.15663147 22.61473083 C-5.0068596 20.64809056 -5.0068596 20.64809056 -6.15663147 18.61473083 C-6.45741272 15.55613708 -6.45741272 15.55613708 -6.46913147 12.17723083 C-6.48588928 11.0647699 -6.50264709 9.95230896 -6.51991272 8.80613708 C-5.96670736 3.94625775 -5.09299983 0.99182438 0 0 Z " fill="#63C3EA" transform="translate(428.15663146972656,318.38526916503906)"/>
<path d="M0 0 C5.28 0 10.56 0 16 0 C16 65.67 16 131.34 16 199 C10.72 199 5.44 199 0 199 C0 133.33 0 67.66 0 0 Z " fill="#08375D" transform="translate(34,235)"/>
<path d="M0 0 C0.98790024 -0.01268417 1.97580048 -0.02536835 2.99363708 -0.03843689 C4.59212242 -0.03403343 4.59212242 -0.03403343 6.22290039 -0.02954102 C7.3189711 -0.03478287 8.41504181 -0.04002472 9.54432678 -0.04542542 C11.86352694 -0.05185208 14.18275967 -0.05050034 16.50195312 -0.04199219 C20.05340581 -0.03348833 23.60324758 -0.0622268 27.15454102 -0.09399414 C29.40649366 -0.09560633 31.65844915 -0.09502828 33.91040039 -0.09204102 C34.97403305 -0.10327499 36.03766571 -0.11450897 37.13352966 -0.12608337 C44.20539494 -0.0591436 44.20539494 -0.0591436 47.81005859 1.74072266 C50.01337632 6.17622608 49.61986968 10.63661816 49.52368164 15.51342773 C49.51965332 16.47265137 49.515625 17.431875 49.51147461 18.42016602 C49.49056954 21.99832324 49.43472393 25.57620748 49.38305664 29.15405273 C49.25930664 41.15780273 49.25930664 41.15780273 49.13305664 53.40405273 C30.32305664 53.40405273 11.51305664 53.40405273 -7.86694336 53.40405273 C-7.92881836 45.21592773 -7.99069336 37.02780273 -8.05444336 28.59155273 C-8.08175537 26.00851318 -8.10906738 23.42547363 -8.13720703 20.76416016 C-8.14596736 18.72095203 -8.15361236 16.67773868 -8.15991211 14.63452148 C-8.17526001 13.57027954 -8.19060791 12.5060376 -8.2064209 11.4095459 C-8.20678345 10.39477173 -8.207146 9.37999756 -8.20751953 8.33447266 C-8.21418137 7.45288986 -8.2208432 6.57130707 -8.22770691 5.66300964 C-7.86694336 3.40405273 -7.86694336 3.40405273 -6.64984131 1.62115479 C-4.31295579 0.02587102 -2.82075018 0.01752749 0 0 Z " fill="#40AF8F" transform="translate(289.866943359375,325.595947265625)"/>
<path d="M0 0 C0.99112793 -0.00945648 1.98225586 -0.01891296 3.00341797 -0.02865601 C4.07221191 -0.02258331 5.14100586 -0.01651062 6.2421875 -0.01025391 C7.34062988 -0.01312408 8.43907227 -0.01599426 9.57080078 -0.01895142 C11.89421097 -0.02099377 14.21763828 -0.01545204 16.54101562 -0.00292969 C20.10325462 0.01312082 23.66435892 -0.00277338 27.2265625 -0.02197266 C29.48177335 -0.01999026 31.73698348 -0.01614665 33.9921875 -0.01025391 C35.06098145 -0.0163266 36.12977539 -0.02239929 37.23095703 -0.02865601 C38.71764893 -0.01447128 38.71764893 -0.01447128 40.234375 0 C41.10690918 0.00238678 41.97944336 0.00477356 42.87841797 0.00723267 C45.1171875 0.38818359 45.1171875 0.38818359 46.90107727 1.60429382 C48.51178259 3.96700788 48.47929696 5.46903141 48.45776367 8.31860352 C48.45740112 9.33337769 48.45703857 10.34815186 48.45666504 11.39367676 C48.44131714 12.4579187 48.42596924 13.52216064 48.41015625 14.61865234 C48.40713501 15.59854126 48.40411377 16.57843018 48.40100098 17.5880127 C48.38529718 21.2506767 48.34341321 24.91319065 48.3046875 28.57568359 C48.2428125 36.76380859 48.1809375 44.95193359 48.1171875 53.38818359 C29.6371875 53.38818359 11.1571875 53.38818359 -7.8828125 53.38818359 C-7.9446875 45.20005859 -8.0065625 37.01193359 -8.0703125 28.57568359 C-8.09762451 25.99264404 -8.12493652 23.40960449 -8.15307617 20.74829102 C-8.1618365 18.70508289 -8.16948151 16.66186954 -8.17578125 14.61865234 C-8.19112915 13.5544104 -8.20647705 12.49016846 -8.22229004 11.39367676 C-8.22265259 10.37890259 -8.22301514 9.36412842 -8.22338867 8.31860352 C-8.23005051 7.43702072 -8.23671234 6.55543793 -8.24357605 5.6471405 C-7.8828125 3.38818359 -7.8828125 3.38818359 -6.66670227 1.60429382 C-4.3228114 0.00642062 -2.82781771 0.00773537 0 0 Z " fill="#3FAF90" transform="translate(155.8828125,325.61181640625)"/>
<path d="M0 0 C33 0 66 0 100 0 C100 15.84 100 31.68 100 48 C96.40259819 50.39826787 93.66533639 50.40179712 89.5 50.4375 C88.82324219 50.47037109 88.14648438 50.50324219 87.44921875 50.53710938 C85.46875 50.55859375 85.46875 50.55859375 82 50 C77.73655772 45.42949709 78.66682196 39.5258274 78.8125 33.6875 C78.82603516 32.66076172 78.83957031 31.63402344 78.85351562 30.57617188 C78.88876117 28.05024091 78.938033 25.5253934 79 23 C78.30525574 23.00222061 77.61051147 23.00444122 76.89471436 23.00672913 C70.24925107 23.02702067 63.6037968 23.04211796 56.95830917 23.05181217 C53.54429521 23.05696403 50.13030747 23.06391584 46.71630859 23.07543945 C31.10089969 23.12421967 15.588324 22.95731003 0 22 C0 14.74 0 7.48 0 0 Z " fill="#CB7C52" transform="translate(412,409)"/>
<path d="M0 0 C2.76101146 1.82109266 4.52100548 3.04201097 6 6 C6.12240812 8.55769097 6.18568254 11.08993619 6.20532227 13.64892578 C6.21522186 14.43972031 6.22512146 15.23051483 6.23532104 16.04527283 C6.26706423 18.67858855 6.29178949 21.31192124 6.31640625 23.9453125 C6.33701033 25.79068429 6.35800762 27.63605173 6.37937927 29.48141479 C6.42343417 33.3703971 6.46431094 37.25939505 6.50268555 41.1484375 C6.56067776 47.02350402 6.62670092 52.89846405 6.69335938 58.7734375 C6.78687597 67.08313729 6.86468838 75.39286929 6.93166542 83.70282364 C6.97452419 88.79960945 7.04385833 93.89501691 7.13232422 98.99121094 C7.16010107 101.17903304 7.18763513 103.36685825 7.21484375 105.5546875 C7.25007896 106.98157394 7.25007896 106.98157394 7.286026 108.43728638 C7.29339279 109.28282074 7.30075958 110.1283551 7.30834961 110.99951172 C7.32127548 111.71001678 7.33420135 112.42052185 7.34751892 113.15255737 C6.88885273 115.59086916 5.91453723 116.47534285 4 118 C1.05037331 118.61769355 -1.93032841 118.46364932 -4.9375 118.4375 C-5.74896484 118.45748047 -6.56042969 118.47746094 -7.39648438 118.49804688 C-8.57500977 118.49708008 -8.57500977 118.49708008 -9.77734375 118.49609375 C-10.49140381 118.49794678 -11.20546387 118.4997998 -11.94116211 118.50170898 C-15.10293142 117.73123158 -16.06354792 116.64398605 -18 114 C-18.61167464 110.64329302 -18.54606972 107.31464604 -18.51757812 103.91064453 C-18.5245874 102.8858197 -18.53159668 101.86099487 -18.53881836 100.80511475 C-18.55643696 97.41407244 -18.54475962 94.02386346 -18.53125 90.6328125 C-18.5339442 88.27635538 -18.53782602 85.91989935 -18.54284668 83.56344604 C-18.54874734 78.62210517 -18.5401617 73.68105338 -18.52148438 68.73974609 C-18.49871994 62.40879298 -18.51179906 56.07851908 -18.53577423 49.74759102 C-18.55023796 44.8799428 -18.54562304 40.01245519 -18.53526306 35.14480209 C-18.53259609 32.81082962 -18.53586446 30.47684252 -18.54518127 28.14288712 C-18.55535305 24.87758105 -18.53983448 21.61336923 -18.51757812 18.34814453 C-18.52567505 17.38482208 -18.53377197 16.42149963 -18.54211426 15.4289856 C-18.47102383 9.79202252 -17.83354809 6.43344904 -14 2 C-9.31516927 -1.30067619 -5.36491549 -1.65583811 0 0 Z " fill="#FBC86B" transform="translate(110,341)"/>
<path d="M0 0 C1.54204102 0.00966797 1.54204102 0.00966797 3.11523438 0.01953125 C4.18708984 0.03628906 5.25894531 0.05304688 6.36328125 0.0703125 C7.44673828 0.07933594 8.53019531 0.08835938 9.64648438 0.09765625 C12.32313835 0.1212391 14.99934922 0.15415124 17.67578125 0.1953125 C17.18911484 0.66360474 16.70244843 1.13189697 16.20103455 1.61437988 C13.91471148 5.48314437 14.24929312 9.07279604 14.27172852 13.49023438 C14.26143364 14.90061729 14.26143364 14.90061729 14.25093079 16.3394928 C14.23262769 19.44783625 14.23650498 22.55567672 14.2421875 25.6640625 C14.23762773 27.8235287 14.23232277 29.98299344 14.2263031 32.14245605 C14.21736534 36.66843562 14.21980316 41.1942388 14.22973633 45.72021484 C14.24123276 51.52448813 14.22100721 57.32815367 14.19181919 63.13234711 C14.17348795 67.59157182 14.17374342 72.05065003 14.17945671 76.50990295 C14.17961027 78.65016025 14.17353748 80.79042726 14.16116524 82.9306488 C14.14631359 85.92095271 14.1568893 88.91012259 14.17407227 91.90039062 C14.1644043 92.78674698 14.15473633 93.67310333 14.14477539 94.58631897 C14.17098341 99.57319591 14.17098341 99.57319591 16.70713806 103.77624512 C17.35679031 104.24453735 18.00644257 104.71282959 18.67578125 105.1953125 C14.925928 105.2824872 11.1763357 105.33576253 7.42578125 105.3828125 C5.83056641 105.42051758 5.83056641 105.42051758 4.203125 105.45898438 C3.17832031 105.46865234 2.15351563 105.47832031 1.09765625 105.48828125 C-0.31628418 105.51184692 -0.31628418 105.51184692 -1.75878906 105.53588867 C-5.03672501 105.10072302 -6.089733 104.66952178 -8.32421875 102.1953125 C-8.94467691 99.04283111 -8.85955149 95.91039534 -8.82592773 92.70678711 C-8.83133072 91.73420456 -8.8367337 90.76162201 -8.84230042 89.75956726 C-8.85482747 86.53862254 -8.83827109 83.31856465 -8.8203125 80.09765625 C-8.82046738 77.86471001 -8.82195457 75.6317635 -8.82472229 73.39881897 C-8.82610803 68.71717457 -8.81351774 64.03583589 -8.79077148 59.35424805 C-8.76237018 53.34243592 -8.76512642 47.33113136 -8.7778616 41.31928158 C-8.78480385 36.70829403 -8.77704639 32.09742458 -8.76460457 27.4864521 C-8.76007708 25.26919571 -8.75976452 23.05192669 -8.76366997 20.83466911 C-8.76656835 17.74099436 -8.75014148 14.64802869 -8.72827148 11.55444336 C-8.73277313 10.63127319 -8.73727478 9.70810303 -8.74191284 8.75695801 C-8.72705589 7.49721413 -8.72705589 7.49721413 -8.7118988 6.21202087 C-8.70825396 5.11447936 -8.70825396 5.11447936 -8.70453548 3.99476528 C-7.77229778 -0.41607859 -3.63232016 -0.04013613 0 0 Z " fill="#E9923A" transform="translate(8.32421875,130.8046875)"/>
<path d="M0 0 C1.18239258 0.01353516 1.18239258 0.01353516 2.38867188 0.02734375 C4.32174666 0.05077496 6.2546638 0.08664162 8.1875 0.125 C7.1975 0.785 6.2075 1.445 5.1875 2.125 C2.38507127 4.20525143 0.46375512 5.79821377 -0.26769829 9.31120682 C-0.44351842 12.10274902 -0.45349891 14.85400306 -0.41186523 17.65087891 C-0.41580795 18.70992935 -0.41975067 19.7689798 -0.42381287 20.86012268 C-0.43052128 24.35775166 -0.4013654 27.8540734 -0.37109375 31.3515625 C-0.36684385 33.7810338 -0.3645151 36.21050916 -0.36402893 38.63998413 C-0.35786328 43.72925235 -0.33515871 48.81808049 -0.29956055 53.90722656 C-0.25424021 60.43895655 -0.23953214 66.97028834 -0.23582363 73.50216103 C-0.23140075 78.51722154 -0.21610773 83.53219803 -0.1969471 88.54722214 C-0.18805304 90.95623456 -0.18132881 93.36525599 -0.17678642 95.77428055 C-0.1677695 99.13564471 -0.14540178 102.49664426 -0.11889648 105.85791016 C-0.11823181 106.8584996 -0.11756714 107.85908905 -0.11688232 108.88999939 C-0.10191963 110.26106087 -0.10191963 110.26106087 -0.08665466 111.65982056 C-0.08200416 112.45436457 -0.07735365 113.24890858 -0.07256222 114.06752968 C0.07113009 116.43359157 0.07113009 116.43359157 2.1875 119.125 C-0.75152349 119.25981759 -3.68439559 119.35899416 -6.625 119.4375 C-7.45837891 119.47939453 -8.29175781 119.52128906 -9.15039062 119.56445312 C-9.95283203 119.58056641 -10.75527344 119.59667969 -11.58203125 119.61328125 C-12.32042236 119.63946533 -13.05881348 119.66564941 -13.81958008 119.69262695 C-15.8125 119.125 -15.8125 119.125 -17.42503357 117.18449402 C-19.36079707 112.91595338 -19.13555838 109.23273049 -19.00488281 104.60546875 C-18.97732057 102.70621884 -18.94985733 100.8069675 -18.92248535 98.90771484 C-18.89342857 97.45990631 -18.89342857 97.45990631 -18.86378479 95.98284912 C-18.78568074 91.6304947 -18.78855026 87.27871085 -18.78417969 82.92578125 C-18.75395507 74.62380497 -18.69581438 66.32203018 -18.62859726 58.02027893 C-18.58873267 53.04410207 -18.55669647 48.06811524 -18.54150391 43.09179688 C-18.52637562 38.21740821 -18.49205712 33.34350323 -18.44419098 28.46932983 C-18.42940213 26.62580551 -18.42146042 24.7822126 -18.42061615 22.93862915 C-18.41825474 20.37652182 -18.39126471 17.81577852 -18.35839844 15.25390625 C-18.3634288 14.50071106 -18.36845917 13.74751587 -18.37364197 12.97149658 C-18.27643173 8.07953103 -17.29685278 5.55990998 -13.8125 2.125 C-9.44597167 -0.46544487 -4.921347 -0.10725484 0 0 Z " fill="#E6B864" transform="translate(383.8125,339.875)"/>
<path d="M0 0 C4.17868025 1.39289342 5.29765312 4.32161804 7.4375 7.9375 C8.32960691 9.40512223 9.2242385 10.87121213 10.12109375 12.3359375 C10.59015137 13.10260742 11.05920898 13.86927734 11.54248047 14.65917969 C13.94425091 18.51649543 16.46813465 22.28977196 19 26.0625 C19.49846436 26.80749756 19.99692871 27.55249512 20.51049805 28.32006836 C22.99072975 32.02170858 25.48349938 35.7146259 27.984375 39.40234375 C28.45101562 40.09384521 28.91765625 40.78534668 29.3984375 41.49780273 C30.27979883 42.80344657 31.16503945 44.10648261 32.0546875 45.40649414 C35 49.7750899 35 49.7750899 35 52 C11.57 52 -11.86 52 -36 52 C-34.515 51.505 -34.515 51.505 -33 51 C-32.30563429 49.34468176 -31.64649257 47.67459535 -31 46 C-29.44404721 43.38470781 -27.7149572 40.88804888 -26 38.375 C-24.93060245 36.79062582 -23.86162072 35.20597092 -22.79296875 33.62109375 C-22.19919434 32.74308105 -21.60541992 31.86506836 -20.99365234 30.96044922 C-18.7291872 27.59785991 -16.48204382 24.22407863 -14.23828125 20.84765625 C-13.83141083 20.23567383 -13.42454041 19.62369141 -13.00534058 18.99316406 C-11.36470316 16.52532985 -9.72420171 14.05740621 -8.0847168 11.58880615 C-6.92867863 9.84882921 -5.77115219 8.10985142 -4.61328125 6.37109375 C-3.94079346 5.35974365 -3.26830566 4.34839355 -2.57543945 3.30639648 C-1 1 -1 1 0 0 Z " fill="#86D5B5" transform="translate(179,142)"/>
<path d="M0 0 C0.89589844 0.00322266 1.79179688 0.00644531 2.71484375 0.00976562 C4.12056641 0.02233398 4.12056641 0.02233398 5.5546875 0.03515625 C6.49957031 0.03966797 7.44445312 0.04417969 8.41796875 0.04882812 C10.75527137 0.06063268 13.09244811 0.07709866 15.4296875 0.09765625 C14.4396875 0.75765625 13.4496875 1.41765625 12.4296875 2.09765625 C9.36465993 4.89224021 7.59480863 6.76118909 7.2910223 11.05977154 C7.28456975 11.80918923 7.2781172 12.55860693 7.27146912 13.33073425 C7.25678589 14.62428581 7.25678589 14.62428581 7.24180603 15.94396973 C7.23605057 16.88695923 7.2302951 17.82994873 7.22436523 18.80151367 C7.20951584 20.29446709 7.20951584 20.29446709 7.19436646 21.81758118 C7.16273805 25.11273812 7.13798864 28.40790949 7.11328125 31.703125 C7.09271289 33.98570636 7.07171645 36.2682839 7.05030823 38.55085754 C6.99507543 44.56286529 6.94567143 50.57490748 6.89746094 56.5869751 C6.84725477 62.72012401 6.79156408 68.85322281 6.73632812 74.98632812 C6.62873175 87.02339471 6.52729002 99.06050477 6.4296875 111.09765625 C3.7896875 111.09765625 1.1496875 111.09765625 -1.5703125 111.09765625 C-1.5703125 128.58765625 -1.5703125 146.07765625 -1.5703125 164.09765625 C-1.9003125 164.09765625 -2.2303125 164.09765625 -2.5703125 164.09765625 C-2.57173752 163.04387283 -2.57316254 161.99008942 -2.57463074 160.90437317 C-2.59130189 150.97232178 -2.63407908 141.04068004 -2.70240307 131.10884571 C-2.73669064 126.00276124 -2.76178581 120.89697653 -2.76586914 115.79077148 C-2.77014828 110.86272286 -2.79857914 105.93535064 -2.84374428 101.00751305 C-2.85673158 99.1277021 -2.8610226 97.24781026 -2.85646629 95.36795998 C-2.85156897 92.73390337 -2.87761239 90.10183032 -2.91088867 87.46801758 C-2.90226303 86.69118118 -2.89363739 85.91434479 -2.88475037 85.1139679 C-2.96921876 81.12425542 -3.41064239 79.29849922 -5.92402649 76.13700867 C-8.45952932 73.95202142 -8.45952932 73.95202142 -11.5703125 73.09765625 C-11.68625558 64.44840792 -11.77505193 55.79942782 -11.82937336 47.14957142 C-11.85544757 43.13288197 -11.89080428 39.11672487 -11.94750977 35.1003418 C-12.00190959 31.22292044 -12.03174941 27.3460105 -12.04469872 23.46823692 C-12.05392452 21.99022051 -12.07194108 20.51223154 -12.09896278 19.03443336 C-12.13536338 16.96090251 -12.14025389 14.88947371 -12.13793945 12.81567383 C-12.14904251 11.63652908 -12.16014557 10.45738434 -12.17158508 9.24250793 C-11.39239296 5.16707904 -9.71883853 3.70281029 -6.5703125 1.09765625 C-4.16971433 -0.10264283 -2.67670601 -0.01694118 0 0 Z " fill="#E9AB46" transform="translate(118.5703125,267.90234375)"/>
<path d="M0 0 C2.9608034 0.30806047 3.8623484 0.83358818 5.79248047 3.16699219 C6.69571045 4.59253418 6.69571045 4.59253418 7.6171875 6.046875 C8.30047119 7.11035156 8.98375488 8.17382812 9.68774414 9.26953125 C10.41702323 10.42956568 11.14610438 11.58972458 11.875 12.75 C13.00576181 14.52252723 14.14036712 16.29255729 15.27497864 18.06262207 C16.04513223 19.26506609 16.81382955 20.46844401 17.58110046 21.67272949 C21.88814732 28.42523864 26.3759071 35.05543932 30.88427734 41.67480469 C31.42906738 42.48336914 31.97385742 43.29193359 32.53515625 44.125 C33.013479 44.82882813 33.49180176 45.53265625 33.98461914 46.2578125 C35 48 35 48 35 50 C28.59642949 50.28005518 22.19444658 50.47198399 15.78613281 50.60424805 C13.60910044 50.65940169 11.43247259 50.73435098 9.25683594 50.82983398 C-8.83953505 51.60385534 -8.83953505 51.60385534 -14.16601562 47.6496582 C-16.23376439 44.82625921 -17.65276929 42.21938577 -19 39 C-19.81770161 37.59495224 -20.64846537 36.19730465 -21.5 34.8125 C-21.995 33.884375 -22.49 32.95625 -23 32 C-22.27425781 31.33226562 -21.54851562 30.66453125 -20.80078125 29.9765625 C-17.63409735 26.80653704 -15.46888059 23.20677147 -13.1875 19.375 C-9.09720678 12.65622594 -4.75665616 6.27134556 0 0 Z " fill="#86D5B5" transform="translate(302,144)"/>
<path d="M0 0 C1.20101852 0.00030212 2.40203705 0.00060425 3.63945007 0.00091553 C4.93639297 0.02156067 6.23333588 0.04220581 7.56958008 0.06347656 C8.91049863 0.07093842 10.25142809 0.07663162 11.59236145 0.08062744 C15.11898999 0.09588857 18.64495789 0.13517307 22.17132568 0.17944336 C25.77078311 0.22038659 29.37034746 0.23863634 32.9699707 0.25878906 C40.03078759 0.3016679 47.0911563 0.36992411 54.15161133 0.45410156 C54.16619385 1.06930664 54.18077637 1.68451172 54.19580078 2.31835938 C54.2704171 5.1142301 54.36703113 7.90892444 54.46411133 10.70410156 C54.49794922 12.15623047 54.49794922 12.15623047 54.5324707 13.63769531 C54.56791992 14.57226562 54.60336914 15.50683594 54.63989258 16.46972656 C54.66607666 17.32856445 54.69226074 18.18740234 54.71923828 19.07226562 C55.22978037 21.88471542 56.29531267 23.31903396 58.15161133 25.45410156 C49.85891755 25.54673917 41.56643956 25.61783414 33.27335644 25.66135025 C29.42261175 25.68223481 25.57222078 25.71056729 21.72167969 25.75585938 C18.00638155 25.79928769 14.29142384 25.82323213 10.57589149 25.83361053 C9.15765332 25.84100747 7.739434 25.85545208 6.32134056 25.87702179 C4.33680736 25.90600959 2.35193235 25.90773506 0.3671875 25.90820312 C-1.32824944 25.92152679 -1.32824944 25.92152679 -3.05793762 25.93511963 C-5.84838867 25.45410156 -5.84838867 25.45410156 -7.71195984 23.67376709 C-9.47985371 20.22072809 -9.28124711 16.74061477 -9.22338867 12.95410156 C-9.23499023 12.19484375 -9.2465918 11.43558594 -9.25854492 10.65332031 C-9.24218472 7.53942786 -9.14565502 5.02322729 -7.68901062 2.23443604 C-5.12261052 -0.24790455 -3.53325017 -0.02962893 0 0 Z " fill="#62C2E9" transform="translate(15.848388671875,433.5458984375)"/>
<path d="M0 0 C1.48831242 0.00667405 2.97660807 0.01863442 4.46484375 0.03515625 C5.22345703 0.03966797 5.98207031 0.04417969 6.76367188 0.04882812 C8.64326246 0.06064945 10.52281274 0.07858547 12.40234375 0.09765625 C12.86233464 9.25090137 13.23974572 18.40310245 13.51886559 27.5636549 C13.65100464 31.82001859 13.80891121 36.07178091 14.03125 40.32446289 C15.08068952 60.78875246 15.47610556 76.49614866 1.13565063 92.76997375 C-0.59765625 94.09765625 -0.59765625 94.09765625 -4.59765625 94.09765625 C-4.62077803 81.98923681 -4.63857049 69.88082258 -4.64946842 57.7723856 C-4.65469761 52.15057663 -4.66179591 46.52878272 -4.6730957 40.90698242 C-4.68392331 35.48647348 -4.68993281 30.06597905 -4.69253349 24.64546013 C-4.69438797 22.5725068 -4.69800902 20.49955431 -4.70338631 18.42660713 C-4.71059505 15.53381732 -4.71164726 12.64108829 -4.71118164 9.74829102 C-4.71477692 8.88226761 -4.71837219 8.0162442 -4.72207642 7.12397766 C-4.7098077 0.12784494 -4.7098077 0.12784494 0 0 Z " fill="#A2D3E7" transform="translate(146.59765625,98.90234375)"/>
<path d="M0 0 C9.7442238 -0.04627664 19.48842159 -0.08184536 29.23273277 -0.10362434 C33.7570826 -0.11407551 38.28135741 -0.1282589 42.80566406 -0.15087891 C47.16931524 -0.17255993 51.53289413 -0.18455858 55.896595 -0.18975449 C57.56402347 -0.19345879 59.23144785 -0.20069207 60.89884567 -0.21146011 C63.22871295 -0.2259122 65.55827894 -0.22798061 67.88818359 -0.22705078 C68.58229843 -0.23424133 69.27641327 -0.24143188 69.99156189 -0.24884033 C74.77189568 -0.22810432 74.77189568 -0.22810432 77 2 C77 7.28 77 12.56 77 18 C50.93 18 24.86 18 -2 18 C-2 4 -2 4 0 0 Z " fill="#9CE7FF" transform="translate(424,342)"/>
<path d="M0 0 C2.34375 0.640625 2.34375 0.640625 5 2 C6.40625 4.609375 6.40625 4.609375 7.5 7.75 C10.19864904 14.71318084 12.38274199 19.00872294 19.4375 22.1875 C20.95707598 22.79482217 22.47785238 23.39915226 24 24 C26.00699249 24.98589105 28.01030767 25.97964496 30 27 C30 28.65 30 30.3 30 32 C27.93824636 32.959938 25.87556531 33.91788424 23.8125 34.875 C22.66394531 35.40867188 21.51539063 35.94234375 20.33203125 36.4921875 C17 38 17 38 14.19921875 38.9453125 C9.78114959 41.06410233 9.17134401 46.26174907 7.625 50.625 C7.22539062 51.77226562 6.82578125 52.91953125 6.4140625 54.1015625 C5 57 5 57 2.8359375 58.3984375 C2.23007812 58.59695312 1.62421875 58.79546875 1 59 C-2.25806985 56.44008798 -3.53827464 53.91718628 -4.9375 50.125 C-7.35813031 43.89530238 -9.19824704 40.29511925 -15.36328125 37.4453125 C-17.86371735 36.39188504 -20.37101988 35.43629211 -22.91796875 34.4921875 C-26 33 -26 33 -27.42578125 30.8203125 C-27.61527344 30.21960938 -27.80476563 29.61890625 -28 29 C-24.98180534 25.56301278 -22.42496933 24.2161473 -18.125 22.75 C-10.95816912 19.88152389 -7.89009955 16.30312664 -4.828125 9.33203125 C-4.13884325 7.60133467 -3.4793877 5.85826516 -2.859375 4.1015625 C-2 2 -2 2 0 0 Z " fill="#FFBB4A" transform="translate(451,100)"/>
<path d="M0 0 C1.84765625 0.01171875 1.84765625 0.01171875 4 1 C5.31644652 3.2765395 6.39895439 5.41492951 7.4375 7.8125 C11.22639172 16.52249343 16.11976803 19.26675033 24.671875 22.75390625 C27 24 27 24 28 27 C25.59518414 30.60722379 24.19036433 30.87620713 20.1875 32.3125 C12.42972862 35.45078699 9.70012351 39.26157793 6.4375 46.8125 C6.06496094 47.76769531 5.69242187 48.72289062 5.30859375 49.70703125 C4 52 4 52 1.84765625 52.82421875 C1.23792969 52.88222656 0.62820313 52.94023437 0 53 C-2.06227545 49.74377561 -3.74368585 46.42141065 -5.375 42.9375 C-9.13270088 35.46630648 -14.13782357 33.31813344 -21.671875 30.24609375 C-24 29 -24 29 -25 26 C-22.59518414 22.39277621 -21.19036433 22.12379287 -17.1875 20.6875 C-8.35442249 17.11421447 -5.62868708 11.76537065 -2.015625 3.29296875 C-1 1 -1 1 0 0 Z " fill="#FFBB4A" transform="translate(413,216)"/>
<path d="M0 0 C1.32 0 2.64 0 4 0 C4.23074219 0.66386719 4.46148437 1.32773437 4.69921875 2.01171875 C8.09057164 11.1938402 12.2090071 14.9166822 20.98828125 19.08203125 C21.65214844 19.38496094 22.31601563 19.68789062 23 20 C23 21.32 23 22.64 23 24 C22.18015625 24.36351563 21.3603125 24.72703125 20.515625 25.1015625 C12.57224208 28.80720764 8.76756672 31.65383654 5.4375 39.8125 C4.963125 40.864375 4.48875 41.91625 4 43 C2.515 43.495 2.515 43.495 1 44 C-1.55651912 41.73957491 -2.66659744 39.73322 -3.875 36.5625 C-7.09805362 29.10239837 -12.82023821 26.94073032 -20 24 C-19.8515625 21.65625 -19.8515625 21.65625 -19 19 C-16.5234375 17.65625 -16.5234375 17.65625 -13.375 16.5 C-5.51082935 12.9526772 -3.23606878 7.67996606 0 0 Z " fill="#FFBB4A" transform="translate(70,53)"/>
<path d="M0 0 C1.29210136 0.00848969 1.29210136 0.00848969 2.61030579 0.01715088 C5.36186273 0.0395437 8.11211788 0.0897442 10.86328125 0.140625 C12.72849682 0.1606863 14.5937328 0.17893772 16.45898438 0.1953125 C21.03175167 0.23941787 25.60354575 0.30846443 30.17578125 0.390625 C30.17578125 0.720625 30.17578125 1.050625 30.17578125 1.390625 C29.04398438 1.43960937 27.9121875 1.48859375 26.74609375 1.5390625 C25.26429786 1.61409014 23.78252825 1.68963797 22.30078125 1.765625 C21.55441406 1.7965625 20.80804688 1.8275 20.0390625 1.859375 C15.64104937 1.94706331 15.64104937 1.94706331 12.17578125 4.390625 C12.00336113 7.07628757 11.94345847 9.6458356 11.98828125 12.328125 C11.98924805 13.42157227 11.98924805 13.42157227 11.99023438 14.53710938 C11.95986357 20.56073737 11.95986357 20.56073737 15.17578125 25.390625 C11.23852799 25.50657084 7.30171202 25.57778964 3.36328125 25.640625 C2.24373047 25.67414063 1.12417969 25.70765625 -0.02929688 25.7421875 C-1.10244141 25.75507813 -2.17558594 25.76796875 -3.28125 25.78125 C-4.76588745 25.8126709 -4.76588745 25.8126709 -6.28051758 25.84472656 C-8.82421875 25.390625 -8.82421875 25.390625 -10.64575195 23.61425781 C-12.47161505 20.16906181 -12.25729963 16.69169586 -12.19921875 12.890625 C-12.21082031 12.13136719 -12.22242188 11.37210937 -12.234375 10.58984375 C-12.21847002 7.56259581 -12.07330055 4.95963354 -10.85083008 2.16699219 C-7.63747741 -0.64957859 -4.05978062 -0.10006613 0 0 Z " fill="#5CB2D5" transform="translate(18.82421875,433.609375)"/>
<path d="M0 0 C0.83265381 0.00523682 1.66530762 0.01047363 2.52319336 0.01586914 C3.42231445 0.0190918 4.32143555 0.02231445 5.24780273 0.02563477 C6.66609375 0.03820312 6.66609375 0.03820312 8.11303711 0.05102539 C9.06243164 0.05553711 10.01182617 0.06004883 10.98999023 0.06469727 C13.34356776 0.07652429 15.69702188 0.09300514 18.05053711 0.11352539 C18.13729331 4.40506561 18.190846 8.69638207 18.23803711 12.98852539 C18.26317383 14.2118457 18.28831055 15.43516602 18.31420898 16.69555664 C18.32387695 17.8621582 18.33354492 19.02875977 18.34350586 20.23071289 C18.35921631 21.30949707 18.37492676 22.38828125 18.39111328 23.49975586 C18.27872314 24.3622998 18.16633301 25.22484375 18.05053711 26.11352539 C14.4531353 28.51179326 11.7158735 28.51532251 7.55053711 28.55102539 C6.53540039 28.60033203 6.53540039 28.60033203 5.49975586 28.65063477 C2.26836326 28.68568932 0.49415934 28.52786855 -1.90258789 26.28930664 C-3.48595242 21.48604038 -3.30271266 16.88404553 -3.19946289 11.86352539 C-3.19430664 10.84516602 -3.18915039 9.82680664 -3.18383789 8.77758789 C-3.09213101 0.18006774 -3.09213101 0.18006774 0 0 Z " fill="#FEAE67" transform="translate(493.949462890625,430.886474609375)"/>
<path d="M0 0 C6.6 0 13.2 0 20 0 C20.08071599 4.10455765 20.14036813 8.20753836 20.1875 12.3125 C20.21263672 13.47974609 20.23777344 14.64699219 20.26367188 15.84960938 C20.27333984 16.96787109 20.28300781 18.08613281 20.29296875 19.23828125 C20.3086792 20.26993408 20.32438965 21.30158691 20.34057617 22.36450195 C20 25 20 25 18.70068359 26.83740234 C15.87235419 28.77086554 12.73612257 28.39051851 9.4375 28.3125 C8.75236328 28.31572266 8.06722656 28.31894531 7.36132812 28.32226562 C2.26727586 28.26727586 2.26727586 28.26727586 0 26 C-0.22705078 23.38623047 -0.22705078 23.38623047 -0.1953125 20.1171875 C-0.18886719 18.95058594 -0.18242187 17.78398437 -0.17578125 16.58203125 C-0.15902344 15.35871094 -0.14226562 14.13539063 -0.125 12.875 C-0.11597656 11.64394531 -0.10695313 10.41289062 -0.09765625 9.14453125 C-0.07402633 6.09627194 -0.03815439 3.04811211 0 0 Z " fill="#FEAE67" transform="translate(412,431)"/>
<path d="M0 0 C1.09376953 -0.02900391 2.18753906 -0.05800781 3.31445312 -0.08789062 C11.34147779 -0.1514807 11.34147779 -0.1514807 15.4140625 2.08203125 C17.27619356 4.42405072 17.84788724 5.36436676 17.75 8.3125 C17.75193359 9.3025 17.75193359 9.3025 17.75390625 10.3125 C16.92943481 13.22373708 15.51460343 14.40733319 13.1875 16.3125 C8.91490011 17.13785857 4.59341445 16.91519491 0.25 16.875 C-0.93013672 16.89884766 -2.11027344 16.92269531 -3.32617188 16.94726562 C-12.96675987 16.9308979 -12.96675987 16.9308979 -16.09375 13.96875 C-18.20209004 10.7104063 -18.54163106 9.12018444 -17.8125 5.3125 C-12.78727865 -0.88527299 -7.45629685 0.06521542 0 0 Z " fill="#C97A50" transform="translate(461.8125,379.6875)"/>
<path d="M0 0 C0.33 0 0.66 0 1 0 C1 6.6 1 13.2 1 20 C-4.28 20 -9.56 20 -15 20 C-14.01 19.67 -13.02 19.34 -12 19 C-11.31374813 17.34130154 -10.65224432 15.67236347 -10 14 C-8.42642534 11.47984977 -6.6858048 9.08863714 -4.9375 6.6875 C-4.47794922 6.04232422 -4.01839844 5.39714844 -3.54492188 4.73242188 C-2.39260983 3.13339855 -1.19977402 1.56372663 0 0 Z " fill="#7DC2A7" transform="translate(158,174)"/>
</svg>
